<?xml version="1.0" encoding="UTF-8" standalone="no"?>
<svg
   xmlns:dc="http://purl.org/dc/elements/1.1/"
   xmlns:cc="http://creativecommons.org/ns#"
   xmlns:rdf="http://www.w3.org/1999/02/22-rdf-syntax-ns#"
   xmlns:svg="http://www.w3.org/2000/svg"
   xmlns="http://www.w3.org/2000/svg"
   viewBox="0 0 953.31335 749.87469"
   height="749.87469"
   width="953.31335"
   xml:space="preserve"
   id="svg2"
   version="1.1"><metadata
     id="metadata8"><rdf:RDF><cc:Work
         rdf:about=""><dc:format>image/svg+xml</dc:format><dc:type
           rdf:resource="http://purl.org/dc/dcmitype/StillImage" /></cc:Work></rdf:RDF></metadata><defs
     id="defs6"><clipPath
       id="clipPath18"
       clipPathUnits="userSpaceOnUse"><path
         id="path16"
         d="M 0,562.406 H 714.985 V 0 H 0 Z" /></clipPath></defs><g
     transform="matrix(1.3333333,0,0,-1.3333333,0,749.87467)"
     id="g10"><g
       id="g12"><g
         clip-path="url(#clipPath18)"
         id="g14"><g
           transform="translate(9.0368,556.8304)"
           id="g20"><path
             id="path22"
             style="fill:#06141f;fill-opacity:1;fill-rule:nonzero;stroke:none"
             d="M 0,0 H 697.01 L 592.908,-208.629 c -61.747,46.425 -151.801,61.676 -151.801,61.676 l 31.245,-320.551 -123.812,-82.659 -131.277,83.402 37.932,323.311 c 0,0 -74.52,-17.303 -151.234,-63.02 z" /></g><g
           transform="translate(357.5995,3e-4)"
           id="g24"><path
             id="path26"
             style="fill:#d3d2d2;fill-opacity:1;fill-rule:nonzero;stroke:none"
             d="m 0,0 -137.258,87.259 37.438,318.675 c -49.725,-13.922 -97.441,-34.213 -141.964,-60.366 l -5.202,-3.078 -110.613,219.916 h 714.986 l -111.073,-222.712 -5.379,3.999 C 191.078,381.271 121.228,398.256 98.794,402.962 L 129.615,86.587 Z M -125.368,92.921 -0.141,13.34 117.867,92.036 86.304,416.55 l 7.147,-1.203 c 3.68,-0.602 87.153,-15.18 148.793,-58.774 l 97.167,194.687 h -678.963 l 97.237,-193.13 c 74.839,43.417 146.988,60.508 147.696,60.614 l 7.714,1.875 z" /></g><g
           transform="translate(661.1329,529.8077)"
           id="g28"><path
             id="path30"
             style="fill:#eb605b;fill-opacity:1;fill-rule:nonzero;stroke:none"
             d="m 0,0 h -605.752 l 73.282,-116.098 c 0,0 70.805,30.219 163.407,30.219 l -19.427,-331.449 85.561,-44.974 84.039,44.974 -20.134,332.192 c 0,0 91.753,-1.557 164.893,-29.334 z" /></g><g
           transform="translate(358.2368,67.4713)"
           id="g32"><path
             id="path34"
             style="fill:#eb0028;fill-opacity:1;fill-rule:nonzero;stroke:none"
             d="M 0,0 84.004,45.009 63.905,377.202 c 0,0 91.717,-1.522 164.858,-29.334 l 37.295,55.943 C 137.364,423.556 0,423.662 0,423.662 V 97.804 L -85.56,45.009 Z" /></g><g
           transform="translate(292.1159,443.9689)"
           id="g36"><path
             id="path38"
             style="fill:#eb0028;fill-opacity:1;fill-rule:nonzero;stroke:none"
             d="m 0,0 c 0,0 -76.891,3.503 -163.442,-30.219 l -35.774,55.13 c 96.742,19.143 265.35,22.257 265.35,22.257 z" /></g><g
           transform="translate(358.2754,61.2371)"
           id="g40"><path
             id="path42"
             style="fill:#ffffff;fill-opacity:1;fill-rule:nonzero;stroke:none"
             d="m 0,0 -91.328,47.982 19.249,329.149 c -87.471,-1.309 -154.596,-29.405 -155.268,-29.652 l -4.423,-1.876 -81.209,128.482 h 626.028 l -82.022,-126.783 -4.281,1.557 C 166.061,372.036 91.187,376.813 69.708,377.662 L 89.771,47.982 Z M -79.828,54.457 -0.071,12.526 78.271,54.457 57.854,389.091 63.87,388.985 c 3.75,-0.071 90.195,-1.805 162.593,-28.131 l 66.134,102.192 h -585.371 l 65.427,-103.607 c 17.09,6.581 80.5,28.838 161.213,28.838 h 5.909 z" /></g></g></g></g></svg>