<?xml version="1.0" encoding="UTF-8" standalone="no"?>
<svg
   xmlns:dc="http://purl.org/dc/elements/1.1/"
   xmlns:cc="http://creativecommons.org/ns#"
   xmlns:rdf="http://www.w3.org/1999/02/22-rdf-syntax-ns#"
   xmlns:svg="http://www.w3.org/2000/svg"
   xmlns="http://www.w3.org/2000/svg"
   viewBox="0 0 408.448 338.07867"
   height="338.07867"
   width="408.448"
   xml:space="preserve"
   id="svg2"
   version="1.1"><metadata
     id="metadata8"><rdf:RDF><cc:Work
         rdf:about=""><dc:format>image/svg+xml</dc:format><dc:type
           rdf:resource="http://purl.org/dc/dcmitype/StillImage" /></cc:Work></rdf:RDF></metadata><defs
     id="defs6" /><g
     transform="matrix(1.3333333,0,0,-1.3333333,0,338.07867)"
     id="g10"><g
       transform="translate(171.5823,241.1505)"
       id="g12"><path
         id="path14"
         style="fill:#570514;fill-opacity:1;fill-rule:nonzero;stroke:none"
         d="m 0,0 -8.624,-17.744 -84.96,-7.786 -33.522,-68.979 17.632,1.607 -62.108,-127.261 v -0.007 l 86.143,7.892 23.069,47.272 25.787,-76.144 h 0.071 l 81.455,7.482 -36.092,106.541 125.892,139.522 z" /></g><g
       transform="translate(169.2412,119.5904)"
       id="g16"><path
         id="path18"
         style="fill:#eb008a;fill-opacity:1;fill-rule:nonzero;stroke:none"
         d="M 0,0 112.865,125.09 8.775,115.518 -14.681,67.25 l 12.554,1.147 -34.591,-38.335 32.865,67.342 -80.955,-7.422 -23.456,-48.27 17.664,1.612 -62.107,-127.258 63.187,5.792 31.142,63.813 30.981,-91.479 61.335,5.635" /></g><g
       transform="translate(88.7259,203.3697)"
       id="g20"><path
         id="path22"
         style="fill:#ffffff;fill-opacity:1;fill-rule:nonzero;stroke:none"
         d="m 0,0 -16.747,-34.463 17.687,1.615 -62.104,-127.256 47.876,4.385 78.926,161.735 m 111.6,27.215 -83.654,-7.694 -16.751,-34.463 17.686,1.612 -69.941,-77.523 33.103,-97.732 47.876,4.397 -32.501,95.933" /></g><g
       transform="translate(80.3528,186.1381)"
       id="g24"><path
         id="path26"
         style="fill:#d1d1d1;fill-opacity:1;fill-rule:nonzero;stroke:none"
         d="m 0,0 -0.003,-0.003 -8.37,-17.229 17.686,1.615 32.35,19.432" /></g><g
       transform="translate(194.2846,25.1981)"
       id="g28"><path
         id="path30"
         style="fill:#d1d1d1;fill-opacity:1;fill-rule:nonzero;stroke:none"
         d="M 0,0 -32.502,95.931 71.681,211.403 30.321,191.13 -56.741,94.635 -29.554,13.748 -47.876,-4.399 m 36.836,175.256 41.361,20.273 -50.67,-4.656 -8.377,-17.229 z m -28.88,13.33 -32.35,-19.431 -62.105,-127.257 -32.347,-19.431 47.876,4.385" /></g></g></svg>