<?xml version="1.0" encoding="UTF-8" standalone="no"?>
<svg
   xmlns:dc="http://purl.org/dc/elements/1.1/"
   xmlns:cc="http://creativecommons.org/ns#"
   xmlns:rdf="http://www.w3.org/1999/02/22-rdf-syntax-ns#"
   xmlns:svg="http://www.w3.org/2000/svg"
   xmlns="http://www.w3.org/2000/svg"
   viewBox="0 0 177.74268 188.784"
   height="188.784"
   width="177.74268"
   xml:space="preserve"
   id="svg2"
   version="1.1"><metadata
     id="metadata8"><rdf:RDF><cc:Work
         rdf:about=""><dc:format>image/svg+xml</dc:format><dc:type
           rdf:resource="http://purl.org/dc/dcmitype/StillImage" /></cc:Work></rdf:RDF></metadata><defs
     id="defs6"><clipPath
       id="clipPath22"
       clipPathUnits="userSpaceOnUse"><path
         id="path20"
         d="M 0,141.588 H 133.307 V 0 H 0 Z" /></clipPath></defs><g
     transform="matrix(1.3333333,0,0,-1.3333333,0,188.784)"
     id="g10"><g
       transform="translate(66.657,76.806)"
       id="g12"><path
         id="path14"
         style="fill:#565658;fill-opacity:1;fill-rule:nonzero;stroke:none"
         d="M 0,0 18.609,-9.481 V -41.67 l 13.158,6.705 V -2.7 l -18.14,9.382 18.14,9.509 V 55.063 L 18.609,50.184 V 23.157 l -37.22,-18.962 -0.003,45.991 -13.161,4.874 v -90.025 l 13.164,-6.705 v 32.189 z" /></g><g
       id="g16"><g
         clip-path="url(#clipPath22)"
         id="g18"><g
           transform="translate(133.307,122.92)"
           id="g24"><path
             id="path26"
             style="fill:#565658;fill-opacity:1;fill-rule:nonzero;stroke:none"
             d="m 0,0 -22.433,0.965 v -86.602 l -39.209,-19.967 c 1.18,14.623 2.484,28.725 2.961,41.548 l -16.179,8.243 c 0.306,-15.257 1.764,-32 3.199,-49.791 l -39.209,19.967 V 0.965 L -133.307,0 c 13.979,-15.567 14.608,-47.964 6.989,-92.749 34.619,-6.986 59.666,-30.171 59.666,-30.171 0,0 25.045,23.185 59.665,30.171 C -14.608,-47.964 -13.979,-15.567 0,0" /></g><g
           transform="translate(73.521,105.019)"
           id="g28"><path
             id="path30"
             style="fill:#565658;fill-opacity:1;fill-rule:nonzero;stroke:none"
             d="m 0,0 c -1.265,12.235 -3.444,24.271 -6.864,36.569 -4.1,-14.743 -6.42,-29.109 -7.51,-43.892 z" /></g></g></g></g></svg>