<?xml version="1.0" encoding="UTF-8" standalone="no"?>
<svg
   xmlns:dc="http://purl.org/dc/elements/1.1/"
   xmlns:cc="http://creativecommons.org/ns#"
   xmlns:rdf="http://www.w3.org/1999/02/22-rdf-syntax-ns#"
   xmlns:svg="http://www.w3.org/2000/svg"
   xmlns="http://www.w3.org/2000/svg"
   viewBox="0 0 521.73334 474.79999"
   height="474.79999"
   width="521.73334"
   xml:space="preserve"
   id="svg2"
   version="1.1"><metadata
     id="metadata8"><rdf:RDF><cc:Work
         rdf:about=""><dc:format>image/svg+xml</dc:format><dc:type
           rdf:resource="http://purl.org/dc/dcmitype/StillImage" /></cc:Work></rdf:RDF></metadata><defs
     id="defs6"><clipPath
       id="clipPath18"
       clipPathUnits="userSpaceOnUse"><path
         id="path16"
         d="M 0,356.1 H 391.3 V 0 H 0 Z" /></clipPath></defs><g
     transform="matrix(1.3333333,0,0,-1.3333333,0,474.8)"
     id="g10"><g
       id="g12"><g
         clip-path="url(#clipPath18)"
         id="g14"><g
           transform="translate(391.3,356.1)"
           id="g20"><path
             id="path22"
             style="fill:#1d1d1b;fill-opacity:1;fill-rule:nonzero;stroke:none"
             d="m 0,0 -15.3,-9.6 c -33.6,-21 -63,-27 -88.7,-27.4 -51.4,0.4 -102.5,0.2 -153.7,0 -12.6,-0.1 -25.9,-0.5 -39.4,-2.3 -23.6,-3.1 -47.2,-10.9 -67.1,-27.2 -18.8,-15.4 -30.8,-38.7 -26.1,-65.3 v -0.2 c 10.1,-47.5 78.8,-57.6 107.7,-29.5 0,0 -34.3,16.6 -23.9,30.6 5.7,7.2 14.6,9.2 24.3,10.3 10.4,0.5 27,0.7 40.9,0.8 h 5.2 l -33.7,-236.3 h 98 l 33.1,236.5 h 3.6 c 12.1,0.1 24.1,0.9 34.9,2.5 h 0.2 c 18.1,3.1 39,10.3 57.3,23.1 18.4,12.9 34.4,32.3 39.1,58.3 C -1.5,-23 0,-13 0,0" /></g><g
           transform="translate(25.1,202)"
           id="g24"><path
             id="path26"
             style="fill:#ffffff;fill-opacity:1;fill-rule:nonzero;stroke:none"
             d="m 0,0 c 9.1,-8.5 22.3,-11.7 32.2,-12.6 3.9,-0.5 7.4,-0.5 9.8,-0.3 9.1,0.3 15.2,1.8 19.2,2.9 3.6,1.2 5.4,2.1 5.9,2.4 0.1,0 0.2,0.2 0.2,0.2 0,0 -7.5,4.2 -11.5,7.9 -3.5,3.2 -8.6,7.6 -8.6,15.5 0,3 1.3,28.5 48.5,28.5 h 45.7 l -0.3,-2.1 -33.3,-234.3 h 78.4 l 33.1,236.5 h 21 c 23.9,0 47.8,6.7 67.2,17.5 19.3,10.9 34.4,26.1 41,42.8 1.2,3 2.5,8.8 3.7,14.4 1.7,8.2 3.1,16.7 3.1,16.7 0,0 -0.4,-0.3 -0.9,-0.6 -3.7,-2.9 -19.3,-13.8 -41.5,-20.8 -11.4,-3.8 -24.5,-6.5 -38.5,-6.5 H 96.2 c -22,0 -52.4,-5 -74.5,-17.9 C 17.5,87.6 13.5,84.9 10,81.7 0.1,72.9 -6.8,63.8 -11,54.1 -13.8,47.6 -15.3,40.9 -15.3,34.5 -15.3,22.8 -11.5,12.5 -3.9,4 -2.7,2.7 -1.4,1.2 0,0" /></g><g
           transform="translate(238.3,253.6)"
           id="g28"><path
             id="path30"
             style="fill:#c20b40;fill-opacity:1;fill-rule:nonzero;stroke:none"
             d="m 0,0 h 27.1 c 23.6,0 48.5,7.3 68.1,19.4 15.7,9.6 28,22.3 33.6,36.6 2.5,6.4 3.5,9.7 4.4,14.4 -5,-3 -17.9,-9.7 -34.3,-14.6 C 87.6,52.3 74.5,49.9 61.2,49.9 L -47,49.5 h -70 c -25.2,0 -54.4,-6.1 -73.7,-18.4 -2.9,-2.1 -5.5,-3.8 -7.9,-6.1 -16.8,-15 -22.7,-29.3 -22.9,-41.3 -0.1,-0.3 -0.1,-0.3 -0.1,-0.9 0,-4.4 0.8,-8.5 1.9,-12 0.4,-1.5 1,-3 1.6,-4.1 2.7,-5.9 6.4,-10.2 9.6,-13.2 6.5,-5.9 16.6,-9.1 26.8,-10.3 7.8,-0.9 15.7,-0.9 22.3,0 -6.2,4.4 -13.5,10 -13.5,21.4 0,7.6 4.8,35.5 55.5,35.5 h 53.7 l -33.7,-236.4 h 64.3 z" /></g></g></g></g></svg>