<?xml version="1.0" encoding="UTF-8" standalone="no"?>
<svg
   xmlns:dc="http://purl.org/dc/elements/1.1/"
   xmlns:cc="http://creativecommons.org/ns#"
   xmlns:rdf="http://www.w3.org/1999/02/22-rdf-syntax-ns#"
   xmlns:svg="http://www.w3.org/2000/svg"
   xmlns="http://www.w3.org/2000/svg"
   viewBox="0 0 552.15735 550.79199"
   height="550.79199"
   width="552.15735"
   xml:space="preserve"
   id="svg2"
   version="1.1"><metadata
     id="metadata8"><rdf:RDF><cc:Work
         rdf:about=""><dc:format>image/svg+xml</dc:format><dc:type
           rdf:resource="http://purl.org/dc/dcmitype/StillImage" /></cc:Work></rdf:RDF></metadata><defs
     id="defs6"><clipPath
       id="clipPath18"
       clipPathUnits="userSpaceOnUse"><path
         id="path16"
         d="M 0,413.094 H 414.118 V 0 H 0 Z" /></clipPath></defs><g
     transform="matrix(1.3333333,0,0,-1.3333333,0,550.792)"
     id="g10"><g
       id="g12"><g
         clip-path="url(#clipPath18)"
         id="g14"><g
           transform="translate(368.5049,244.0114)"
           id="g20"><path
             id="path22"
             style="fill:#d00e31;fill-opacity:1;fill-rule:nonzero;stroke:none"
             d="m 0,0 -124.772,-0.006 -30.134,-29.861 105.808,0.015 -57.86,-214.16 40.831,0.1 z m -2.871,120.586 -149.729,-0.01 c -30.61,-0.105 -36.334,-36.2 -36.334,-36.2 l 149.428,-0.027 z m -155.283,48.395 c -14.392,-0.077 -28.35,-3.735 -41.155,-10.749 -22.324,-12.228 -34.867,-31.789 -41.316,-55.77 l -73.326,-274.675 c 0.23,-18.03 11.398,-23.715 25.607,-23.28 l 119.475,-0.107 27.248,20.768 -19.02,-68.955 42.389,-0.045 53.42,202.105 -102.154,0.05 -30.127,-29.932 83.267,0.132 -23.69,-87.119 -131.694,-0.836 69.63,258.348 c 5.642,17.546 17.864,33.013 36.057,33.541 l 172.574,0.012 36.582,36.21 c 0,0 -138.448,0.648 -203.767,0.301 z m -39.246,0.036 c -53.923,-0.532 -83.941,-24.88 -95.979,-62.923 L -361.973,-150.1 c -3.779,-14.268 -8.528,-28.31 -5.646,-43.584 5.001,-26.512 29.916,-50.449 60.346,-50.322 l 82.648,0.346 43.701,35.887 -114.306,-0.055 c -18.354,0.735 -32.6,16.677 -30.793,35.58 l 75.2,279.05 c 12.736,50.959 53.423,62.216 53.423,62.216 z" /></g></g></g></g></svg>