<?xml version="1.0" encoding="UTF-8" standalone="no"?>
<svg
   xmlns:dc="http://purl.org/dc/elements/1.1/"
   xmlns:cc="http://creativecommons.org/ns#"
   xmlns:rdf="http://www.w3.org/1999/02/22-rdf-syntax-ns#"
   xmlns:svg="http://www.w3.org/2000/svg"
   xmlns="http://www.w3.org/2000/svg"
   viewBox="0 0 517.57202 477.66934"
   height="477.66934"
   width="517.57202"
   xml:space="preserve"
   id="svg2"
   version="1.1"><metadata
     id="metadata8"><rdf:RDF><cc:Work
         rdf:about=""><dc:format>image/svg+xml</dc:format><dc:type
           rdf:resource="http://purl.org/dc/dcmitype/StillImage" /></cc:Work></rdf:RDF></metadata><defs
     id="defs6"><clipPath
       id="clipPath18"
       clipPathUnits="userSpaceOnUse"><path
         id="path16"
         d="M 0,0 H 388.179 V 358.252 H 0 Z" /></clipPath></defs><g
     transform="matrix(1.3333333,0,0,-1.3333333,0,477.66933)"
     id="g10"><g
       id="g12"><g
         clip-path="url(#clipPath18)"
         id="g14"><g
           transform="translate(373.8324,333.5301)"
           id="g20"><path
             id="path22"
             style="fill:#5c8ebb;fill-opacity:1;fill-rule:nonzero;stroke:none"
             d="m 0,0 c -11.219,14.141 -27.256,22.649 -46.5,24.611 -2.864,0.3 -181.458,-0.103 -181.458,-0.103 -85.057,-0.272 -115.597,-63.28 -126.21,-100.844 -9.128,-32.204 -8.619,-55.618 -8.955,-62.192 -0.063,-1.081 0.207,-2.452 0.916,-2.752 0.972,-0.434 2.388,-0.049 4.303,1.763 2.089,1.951 37.437,37.589 42.597,42.26 5.151,4.632 27.666,26.585 67.216,26.677 l 134.007,0.4 c -0.544,-2.777 -32.998,-150.825 -32.998,-150.825 -4.988,-19.437 -19.279,-30.334 -44.001,-32.217 l 39.425,179.501 c 0.13,0.304 0.072,0.693 -0.442,0.661 -0.53,-0.064 -30.542,-2.064 -30.542,-2.064 -47.479,-5.27 -91.343,-44.514 -101.919,-91.276 l -19.122,-87.042 c -28.247,0.029 -46.288,4.471 -57.665,6.531 -3.863,0.653 -7.459,1.516 -10.548,2.216 -1.258,0.276 -2.367,-0.831 -1.77,-1.976 3.978,-7.812 13.219,-28.956 26.256,-45.892 17.604,-22.921 45.311,-36.249 81.036,-39.917 l 89.721,-1.05 c 128.913,0.396 138.288,44.089 148.262,90.347 0.856,4.024 40.564,181.868 40.564,181.868 C 17.423,-38.324 13.081,-16.523 0,0" /></g><g
           transform="translate(365.6564,326.5128)"
           id="g24"><path
             id="path26"
             style="fill:#071d3d;fill-opacity:1;fill-rule:nonzero;stroke:none"
             d="m 0,0 c -10.988,13.932 -27.627,21.628 -47.712,21.529 l -172.691,-0.565 c -60.27,-0.167 -97.036,-38.041 -110.208,-70.46 -8.233,-20.257 -10.681,-32.904 -12.265,-41.337 0,0 -3.194,-19.385 -3.534,-25.48 -0.084,-0.863 -0.19,-1.247 0.298,-1.527 0.272,-0.156 0.685,-0.098 1.357,0.456 3.54,3.238 12.66,13.5 14.84,15.738 7.353,7.428 20.964,21.529 29.628,27.582 10.769,7.536 32.99,20.202 61.032,20.267 l 139.437,0.414 c 2.493,0.033 4.03,-0.593 4.176,-0.915 1.89,-2.378 0.252,-6.396 0.252,-6.396 l -33.63,-155.191 c -6.444,-25.409 -27.59,-38.85 -65.038,-39.808 0,0 38.326,177.165 38.465,177.877 0.151,0.847 -0.272,1.378 -1.233,1.275 -0.962,-0.057 -17.17,-1.732 -17.17,-1.732 -43.09,-4.765 -82.809,-40.312 -92.449,-82.629 l -16.631,-75.876 -4.513,-19.148 -5.073,-0.039 c -10.233,-0.017 -23.137,0.544 -48.592,4.971 -4.434,0.772 -6.608,1.503 -7.177,0.895 -0.441,-0.622 -0.313,-1.452 0.736,-3.714 0.441,-0.976 8.589,-21.116 28.853,-39.482 12.619,-11.354 33.649,-19.13 60.931,-21.925 14.974,-1.527 31.002,-1.725 46.153,-1.661 l 23.184,0.056 c 107.828,0.358 141.777,11.191 158.534,82.584 L 10.424,-53.108 C 14.983,-33.08 11.287,-14.223 0,0" /></g><g
           transform="translate(317.4366,338.0181)"
           id="g28"><path
             id="path30"
             style="fill:#c7a079;fill-opacity:1;fill-rule:nonzero;stroke:none"
             d="m 0,0 -172.734,-0.548 c -88.093,-0.268 -107.229,-81.48 -108.121,-84.747 -0.978,-3.25 -3.738,-16.418 -3.939,-17.37 -0.268,-0.939 0.075,-1.388 0.936,-0.476 0.88,0.944 12.18,12.996 12.18,12.996 0.257,0.34 32.176,33.984 81.049,34.122 l 139.504,0.427 c 5.302,0.015 9.218,-1.409 11.518,-4.424 4.579,-5.96 1.852,-16.501 -0.914,-27.704 -0.7,-2.704 -30.857,-141.903 -30.857,-141.903 -11.354,-45.411 -62.856,-45.564 -79.835,-45.606 l -4.851,-0.036 c 0,0 37.58,176.16 37.694,176.937 0.134,0.778 -0.59,1.138 -1.356,1.054 -0.715,-0.075 -5.562,-0.608 -5.562,-0.608 -39.617,-4.396 -76.127,-36.988 -84.905,-75.839 l -23.469,-101.741 c -9.621,0.063 -20.151,0.301 -29.125,1.227 -5.422,0.557 -22.275,3.465 -23.54,3.685 -1.22,0.261 -1.612,-0.357 -0.958,-1.315 0.654,-0.974 5.36,-8.286 5.36,-8.286 15.474,-22.695 40.464,-36.217 71.4,-37.839 30.896,-1.653 53.708,-0.82 75.927,-1.156 64.572,-0.873 125.617,-0.597 143.375,74.556 l 40.43,181.293 c 3.876,17.137 0.749,33.204 -8.718,45.178 C 31.337,-6.523 16.66,0.063 0,0" /></g><g
           transform="translate(93.5011,50.1895)"
           id="g32"><path
             id="path34"
             style="fill:#ffffff;fill-opacity:1;fill-rule:nonzero;stroke:none"
             d="m 0,0 24.416,105.946 c 7.84,34.366 38.853,63.591 73.233,70.548 1.149,5.512 1.576,8.096 1.576,8.096 -37.069,-4.107 -71.92,-35.02 -80.282,-71.666 L -5.445,6.993 c -18.236,0.014 -37.295,1.618 -48.121,3.724 1.968,-2.898 5.145,-6.569 5.451,-6.972 C -36.9,0.557 -18.183,0.056 0,0" /></g><g
           transform="translate(150.1996,325.1394)"
           id="g36"><path
             id="path38"
             style="fill:#ffffff;fill-opacity:1;fill-rule:nonzero;stroke:none"
             d="m 0,0 172.738,0.523 c 13.551,0.046 25.268,-4.555 33.501,-13.007 -0.816,1.365 -1.726,2.672 -2.721,3.912 C 195.289,1.827 182.41,7.54 167.308,7.508 L -5.484,6.932 c -84.805,-0.233 -102.89,-80.501 -102.89,-80.501 0,0 4.021,4.311 11.457,9.953 C -86.357,-39.996 -59.751,-0.18 0,0" /></g><g
           transform="translate(171.7356,50.4295)"
           id="g40"><path
             id="path42"
             style="fill:#ffffff;fill-opacity:1;fill-rule:nonzero;stroke:none"
             d="m 0,0 c 17.544,0.06 72.577,0.18 84.985,49.701 0,0 30.145,139.196 30.872,141.821 3.169,12.504 6.085,24.364 -0.039,32.359 -0.952,1.207 -2.08,2.265 -3.346,3.137 3.138,-7.741 0.59,-17.847 -2.046,-28.519 C 109.684,195.861 79.513,56.644 79.513,56.644 67.132,7.127 12.14,6.993 -5.48,6.993 l -5.301,0.078 -1.558,-7.028 z" /></g></g></g></g></svg>