<?xml version="1.0" encoding="UTF-8" standalone="no"?>
<svg
   xmlns:dc="http://purl.org/dc/elements/1.1/"
   xmlns:cc="http://creativecommons.org/ns#"
   xmlns:rdf="http://www.w3.org/1999/02/22-rdf-syntax-ns#"
   xmlns:svg="http://www.w3.org/2000/svg"
   xmlns="http://www.w3.org/2000/svg"
   viewBox="0 0 246.75867 255.48399"
   height="255.48399"
   width="246.75867"
   xml:space="preserve"
   id="svg2"
   version="1.1"><metadata
     id="metadata8"><rdf:RDF><cc:Work
         rdf:about=""><dc:format>image/svg+xml</dc:format><dc:type
           rdf:resource="http://purl.org/dc/dcmitype/StillImage" /></cc:Work></rdf:RDF></metadata><defs
     id="defs6"><clipPath
       id="clipPath18"
       clipPathUnits="userSpaceOnUse"><path
         id="path16"
         d="M 0,191.613 H 185.069 V 0 H 0 Z" /></clipPath></defs><g
     transform="matrix(1.3333333,0,0,-1.3333333,0,255.484)"
     id="g10"><g
       id="g12"><g
         clip-path="url(#clipPath18)"
         id="g14"><g
           transform="translate(84.2483,116.0617)"
           id="g20"><path
             id="path22"
             style="fill:#a1a1a4;fill-opacity:1;fill-rule:nonzero;stroke:none"
             d="m 0,0 6.368,-12.465 c 0,0 11.763,4.226 15.904,5.712 L 3.576,-80.09 c -0.633,-2.819 -3.109,-7.538 -7.161,-8.635 l -3.288,-0.875 -6.634,-26.462 9.662,2.761 c 37.412,10.664 91.15,23.011 91.641,23.121 l 3.304,0.759 8.497,28.309 -10.191,1.844 -0.621,-0.545 c -4.183,-3.678 -11.517,-9.172 -14.731,-9.872 l -28.878,-6.668 c 2.928,11.056 29.188,110.145 29.188,110.145 z" /></g><g
           transform="translate(61.003,190.6149)"
           id="g24"><path
             id="path26"
             style="fill:#a1a1a4;fill-opacity:1;fill-rule:nonzero;stroke:none"
             d="m 0,0 c -24.931,-4.545 -39.817,-19.617 -39.817,-40.311 0,-1.82 0.12,-3.704 0.364,-5.6 1.667,-13.228 10.261,-24.146 18.576,-34.709 2.489,-3.158 4.846,-6.242 7.008,-9.29 -3.763,-1.442 -47.135,-18.031 -47.135,-18.031 l 0.612,-4.552 c 1.31,-9.736 6.619,-18.687 14.567,-24.552 6.72,-4.952 18.685,-10.192 37.529,-7.027 26.175,4.398 45.763,27.411 43.668,51.291 -1.317,14.924 -9.883,25.176 -18.165,35.093 -7.888,9.439 -15.332,18.353 -14.519,30.273 0.388,5.743 2.816,9.13 6.66,9.296 1.647,0.074 2.847,-0.53 3.896,-1.969 1.26,-1.728 1.957,-4.341 1.957,-6.821 0,-1.276 -0.188,-2.514 -0.574,-3.572 l -0.724,-1.943 4.488,-7.063 30.376,12.768 -0.776,4.548 C 46.967,-16.293 43.109,-10.759 37.119,-6.58 27.484,0.155 13.956,2.553 0,0 m -6.845,-102.908 c 0.426,-1.314 0.758,-2.546 0.914,-3.672 0.228,-1.576 0.34,-3.105 0.34,-4.554 0,-4.582 -1.104,-8.25 -3.286,-10.896 -2.142,-2.602 -5.307,-4.076 -9.152,-4.271 -4.252,-0.224 -7.888,1.044 -10.816,3.776 v 0.001 c -2.102,1.96 -3.684,4.627 -4.534,7.447 4.944,2.269 21.171,9.705 26.534,12.169" /></g><g
           transform="translate(174.4667,51.9925)"
           id="g28"><path
             id="path30"
             style="fill:#ffffff;fill-opacity:1;fill-rule:nonzero;stroke:none"
             d="m 0,0 c -3.772,-3.151 -11.131,-8.784 -15.277,-9.683 -0.019,0 -30.437,-7.044 -30.437,-7.044 -1.785,-0.376 -3.118,-0.282 -3.624,0.271 -0.572,0.603 -0.579,2.137 0,4.207 0,0.016 27.207,102.683 27.207,102.683 l -62.398,-28.362 2.723,-5.311 c 0,0 15.5,5.567 19.836,7.127 l -20.626,-80.877 c -1.025,-4.612 -4.621,-10.202 -10.128,-11.688 l -0.93,-0.248 -4.275,-17.075 2.719,0.765 c 37.252,10.619 91.326,23.066 91.871,23.187 l 0.923,0.212 6.348,21.144 z" /></g><g
           transform="translate(175.9747,48.9152)"
           id="g32"><path
             id="path34"
             style="fill:#0066b3;fill-opacity:1;fill-rule:nonzero;stroke:none"
             d="m 0,0 -5.219,-17.379 c 0,0 -54.23,-12.442 -91.946,-23.204 l 3.364,13.408 c 6.375,1.723 10.22,8.083 11.288,12.862 L -61.13,69.551 -82.513,61.864 -83.8,64.368 -26.107,90.597 -52.428,-8.74 c -1.183,-4.277 -0.524,-7.795 5.576,-6.499 l 30.416,7.026 c 4.124,0.905 10.467,5.596 14.231,8.614 z" /></g><g
           transform="translate(81.1176,156.3695)"
           id="g36"><path
             id="path38"
             style="fill:#ffffff;fill-opacity:1;fill-rule:nonzero;stroke:none"
             d="m 0,0 23.993,10.077 -0.224,1.29 c -0.829,4.769 -4.073,9.345 -9.136,12.889 -8.74,6.103 -21.129,8.247 -33.994,5.899 -25.275,-4.615 -38.76,-20.055 -36.083,-41.294 1.524,-12.069 9.756,-22.539 17.724,-32.657 7.432,-9.445 14.449,-18.365 15.801,-27.956 1.106,-7.828 -0.229,-14.285 -3.858,-18.685 -2.907,-3.524 -7.107,-5.525 -12.158,-5.78 -5.344,-0.275 -10.137,1.409 -13.861,4.892 -4.306,4.015 -6.137,9.208 -6.474,12.885 1.921,0.883 31.913,14.635 31.913,14.635 l -3.026,5.441 -47.166,-18.038 0.173,-1.286 c 1.158,-8.629 5.856,-16.557 12.907,-21.757 8.701,-6.42 20.59,-8.587 34.368,-6.273 21.004,3.524 42.348,22.437 40.205,46.818 -1.195,13.622 -9.327,23.362 -17.205,32.795 -8.438,10.086 -16.396,19.618 -15.478,33.218 0.544,7.863 4.608,12.915 10.628,13.172 3.81,0.179 6.144,-1.908 7.443,-3.678 2.728,-3.73 3.557,-9.874 1.924,-14.275 z" /></g><g
           transform="translate(82.5896,158.7602)"
           id="g40"><path
             id="path42"
             style="fill:#0066b3;fill-opacity:1;fill-rule:nonzero;stroke:none"
             d="M 0,0 20.683,8.704 C 18.725,20.007 1.512,30.177 -20.543,26.149 -45.904,21.52 -57.723,5.979 -55.294,-13.332 c 2.853,-22.588 30.602,-39.936 33.527,-60.591 2.35,-16.625 -6.141,-25.737 -17.553,-26.321 -14.711,-0.75 -21.978,12.152 -22.141,20.431 l 31.34,14.367 -1.471,2.659 -44.636,-17.081 c 2.034,-15.133 16.187,-31.53 45.385,-26.63 21.718,3.658 40.796,22.834 38.847,45.07 -2.411,27.452 -34.541,39.001 -32.689,66.263 0.642,9.337 5.738,14.413 12.188,14.697 C -3.255,19.944 0.628,9.3 -0.908,1.551 Z" /></g></g></g></g></svg>