<?xml version="1.0" encoding="UTF-8" standalone="no"?>
<svg
  xmlns:dc="http://purl.org/dc/elements/1.1/"
  xmlns:cc="http://creativecommons.org/ns#"
  xmlns:rdf="http://www.w3.org/1999/02/22-rdf-syntax-ns#"
  xmlns:svg="http://www.w3.org/2000/svg"
  xmlns="http://www.w3.org/2000/svg"
  viewBox="0 0 553.59601 631.8667"
  height="631.8667"
  width="553.59601"
  xml:space="preserve"
  id="svg2"
  version="1.1"><metadata
    id="metadata8"><rdf:RDF><cc:Work
        rdf:about=""><dc:format>image/svg+xml</dc:format><dc:type
          rdf:resource="http://purl.org/dc/dcmitype/StillImage" /></cc:Work></rdf:RDF></metadata><defs
    id="defs6" /><g
    transform="matrix(1.3333333,0,0,-1.3333333,0,631.86667)"
    id="g10"><g
      transform="translate(206.0658,473.8995)"
      id="g12"><path
        id="path14"
        style="fill:#ef3d42;fill-opacity:1;fill-rule:nonzero;stroke:none"
        d="m 0,0 -123.227,-10.781 25.99,-21.808 -108.823,-406.134 241.351,41.984 13.642,-77.161 50.122,112.839 110.076,48.622 v 0.001 l -99.723,22.304 -18.431,104.24 -49.572,-111.608 -124.029,-10.853 z" /></g><g
      transform="translate(108.8289,441.3132)"
      id="g16"><path
        id="path18"
        style="fill:#ce152c;fill-opacity:1;fill-rule:nonzero;stroke:none"
        d="m 0,0 -108.829,-406.139 241.356,41.989 -4.507,25.48 -181.063,-24.428 97.21,362.784 -70.158,22.122 z" /></g><g
      transform="translate(302.8365,171.0294)"
      id="g20"><path
        id="path22"
        style="fill:#fdbb31;fill-opacity:1;fill-rule:nonzero;stroke:none"
        d="m 0,0 -12.526,70.85 -34.065,-76.696 -31.435,-13.884 -133.685,-13.483 31.859,-28.141 98.34,13.538 27.881,-6.238 12.526,-70.85 34.065,76.696 74.819,33.048 z" /></g><g
      transform="translate(282.6964,189.7352)"
      id="g24"><path
        id="path26"
        style="fill:#00483a;fill-opacity:1;fill-rule:nonzero;stroke:none"
        d="m 0,0 8.516,-30.42 29.007,-9.769 -32.994,-17.542 -17.88,-33.733 -8.516,30.42 -29.007,9.769 32.994,17.543 z" /></g></g></svg>